<svg viewBox="0 0 60 60"
    xmlns="http://www.w3.org/2000/svg">
    <path d="M14.72 59.3c1.46 1.46 4 .43 5.41-1 .19-.19.26-.22 1 0a4 4 0 001.31.27c2.95 0 3.95-3.94 1.62-5.78-4.31-3.39-12.53 3.33-9.34 6.51zm7.7-2.71c-.66 0-2.24-1.17-3.7.29-1 1-2.88 1.63-2.71.57.15-.89 1.48-2.27 2.86-3 1.2-.6 2.89-.94 3.93-.11.85.71.64 2.25-.38 2.25zM1.11 55.56C-.17 58.1 1.1 60 4 60s3.59-2.79 4.56-5.69C9.91 50.26 8 48 5.61 48 3.51 48 0 48 0 51c0 2.29 1.8 3.18 1.11 4.56zM5.61 50c1.66 0 1.58 2.1 1 3.68l-.08.25C5.57 57 5.12 58 4 58c-.82 0-1.23-.2-1.34-.38s-.08-.54.23-1.18C4.14 54 2 52.55 2 51c0-.83 1.27-1 3.61-1zM56.48 10.79C58.24 8.14 60 7.5 60 6s-.52-2.57-3.2-3.47C53.14 1.35 48.74-1.3 47 .8c-.81 1-.59 2.34-.38 3.69.16 1 .35 2.15 0 2.52-2.19 2.19-2.82 4.27-1.86 6.19 1.3 2.6 5.25 2.33 5.25-.45a3 3 0 010-.37 5 5 0 011 .42c2.34 1.2 3.67.69 5.47-2.01zM51.9 11c-1.06-.53-2.17-.94-3.06-.39a2.42 2.42 0 00-.9 2.13c0 .14 0 .2-.19.24a1.22 1.22 0 01-1.27-.69c-.35-.68-.56-1.83 1.48-3.88 1.09-1.08.82-2.76.59-4.24-.11-.69-.29-1.84-.08-2.08 0 0 .14-.09.47-.09 1.39 0 4.82 1.66 7.23 2.46C58 5.08 58 5.46 58 5.94a43.86 43.86 0 00-3.2 3.74c-1.38 2.09-1.71 1.93-2.9 1.32zM14.15 9.27a6.05 6.05 0 107.13 8.61 6.07 6.07 0 00-7.13-8.61zM19.51 17a4 4 0 11-6.958-3.948A4 4 0 0119.51 17zM16 6a9.09 9.09 0 017.17 3.61 1.003 1.003 0 101.6-1.21A11.14 11.14 0 0016 4a1 1 0 000 2zM24.58 12.39A9 9 0 0125 15a1 1 0 002 0 10.9 10.9 0 00-.49-3.2 1 1 0 00-1.91.59z"/>
    <path d="M54 26c0-5.3-3.29-9-8-9-1.65 0-4.62 1-6 7.8-1 4.82-1 6.73-2.73 8.49-1 1-1.87.71-3.58-1C32.27 30.86 30 31.67 30 35c0 1.7 0 3.45-3.29 3.89 2.09-6.13 6.79-21.19 4.81-27.61a15.92 15.92 0 00-7.82-9.42C11.62-4.52-3.43 6.49.73 20c1.83 5.9 12.76 15.3 18.7 20-2.56.52-5.63 1.28-7 2.2-1.66 1.1-2.43 2.27-2.43 3.46a2.79 2.79 0 001.36 2.14c2.49 2.47 3.39 2.57 5.57 1.68 1.49-.62.77-.27 3.47-1.29 2.21-.84 5-1.88 6.13-1.29a3.2 3.2 0 011.23 2.22 2 2 0 003.35 1C32 49.29 34 48.55 36 47.83c3.58-1.31 5-1.87 8.06-4.57.81-.73 1.3-1.15 1.82-1.23-.12.87-.88 2.25-.88 3 0 4 4.4 4.43 5.89 1.44 1.29-2.57 1.22-6 1.14-9.26s-.11-4.29.86-6.24A9.38 9.38 0 0054 26zM2.64 19.39C-1 7.6 12.26-1.92 22.77 3.63a13.94 13.94 0 016.84 8.25c1.9 6.18-3.44 22.87-5.71 29-5.09-3.61-19.35-15.32-21.26-21.49zm48.47 10.67c-1.25 2.5-1.11 4.05-1.11 7.18s.14 6.19-.92 8.32c-.55 1.1-2.1 1.32-2.11-.5.1-.66 1.49-3 .57-4.31A1.77 1.77 0 0046 40c-2.59 0-3.42 3.09-8.37 5.07-3 1.2-6.37 2.1-7.9 3.61-.66-3-2.19-4-4.07-4-2.39 0-5.49 1.5-8 2.33-3 1-2.5 1.71-5-.76-.16-.16-.68-.39-.69-.75s.38-.94 1.54-1.71 4.83-1.66 8-2.22c.44.33 1 .72 1.2.87a2 2 0 003-.93s.14-.36.22-.59c6-.36 6-4.12 6-6a2.77 2.77 0 01.26-1.33c.92.92 3.71 3.71 6.42 1C41 32.47 41 30.25 42 25.2c.78-3.88 2.28-6.19 4-6.19 3.65 0 6 2.74 6 7a7.48 7.48 0 01-.89 4.05z"/>
</svg>