<svg xmlns="http://www.w3.org/2000/svg" fill="currentColor" viewBox="0 0 317.772 317.771"><path d="M85.978 65.5c-1.518.647-1.41 1.177.24 1.177h155.244c1.648 0 1.759-.529.24-1.177l-56.699-24.182c-1.519-.647-2.899-1.999-3.073-3.004-.173-1.005.652-2.77 1.836-3.921l11.383-11.097c1.182-1.151.812-2.288-.82-2.525L178.6 18.486c-1.634-.237-3.565-1.643-4.297-3.122l-7.035-14.255c-.729-1.479-1.927-1.479-2.655 0l-7.036 14.255c-.73 1.479-2.664 2.885-4.296 3.122l-15.731 2.285c-1.633.237-2.002 1.374-.82 2.525l11.383 11.097c1.182 1.151 2.082 2.482 2 2.957s-1.39 1.393-2.907 2.04L85.978 65.5zm216.931 10.734c-3.674 0-6.563 2.142-6.686 2.232-1.156.868-3.354 1.602-4.799 1.602H26.343c-1.446 0-3.643-.733-4.798-1.603-.121-.091-3.013-2.231-6.684-2.231-6.8 0-12.333 5.532-12.333 12.333s5.533 12.334 12.333 12.334c3.671 0 6.562-2.141 6.683-2.231 1.155-.868 3.353-1.602 4.798-1.602h9.175c1.103 0 2 .897 2 2v214.704c0 2.205 1.794 4 4 4h5.613c2.206 0 4-1.795 4-4v-17.658c0-1.104.897-2 2-2h61.352c1.103 0 2 .896 2 2v17.658c0 2.205 1.794 4 4 4h5.613c2.206 0 4-1.795 4-4v-17.658c0-1.104.897-2 2-2h68.781c1.103 0 2 .896 2 2v17.658c0 2.205 1.793 4 4 4h5.613c2.203 0 4-1.795 4-4v-17.658a2 2 0 012-2h52.769c1.102 0 2 .896 2 2v17.658c0 2.205 1.793 4 4 4h5.612c2.205 0 4-1.795 4-4V99.068c0-1.103.896-2 2-2h2.56c1.444 0 3.643.733 4.797 1.602.121.091 3.012 2.231 6.684 2.231 6.801 0 12.334-5.533 12.334-12.334-.002-6.801-5.536-12.333-12.336-12.333zm-86.42 169.711a2 2 0 012-2h52.768c1.103 0 2 .896 2 2v36.426c0 1.104-.897 2-2 2h-52.768a2 2 0 01-2-2v-36.426zm56.767-114.08c0 1.103-.897 2-2 2h-52.77c-1.104 0-2-.897-2-2V99.067c0-1.103.896-2 2-2h52.77c1.103 0 2 .897 2 2v32.798zm-56.767 13.743c0-1.103.896-2 2-2h52.768c1.103 0 2 .897 2 2v36.426c0 1.104-.897 2-2 2h-52.768a2 2 0 01-2-2v-36.426zm0 50.168a2 2 0 012-2h52.768c1.103 0 2 .896 2 2v36.427c0 1.104-.897 2-2 2h-52.768a2 2 0 01-2-2v-36.427zm-86.394 50.169c0-1.104.897-2 2-2h68.781c1.103 0 2 .896 2 2v36.426c0 1.104-.897 2-2 2h-68.781c-1.103 0-2-.896-2-2v-36.426zm72.78-114.08c0 1.103-.897 2-2 2h-68.781c-1.103 0-2-.897-2-2V99.067c0-1.103.897-2 2-2h68.781c1.103 0 2 .897 2 2v32.798zm-72.78 13.743c0-1.103.897-2 2-2h68.781c1.103 0 2 .897 2 2v36.426c0 1.104-.897 2-2 2h-68.781c-1.103 0-2-.896-2-2v-36.426zm0 50.168c0-1.104.897-2 2-2h68.781c1.103 0 2 .896 2 2v36.427c0 1.104-.897 2-2 2h-68.781c-1.103 0-2-.896-2-2v-36.427zM51.13 245.945c0-1.104.897-2 2-2h61.352c1.103 0 2 .896 2 2v36.426c0 1.104-.897 2-2 2H53.13c-1.103 0-2-.896-2-2v-36.426zm65.352-114.08c0 1.103-.897 2-2 2H53.13c-1.103 0-2-.897-2-2V99.067c0-1.103.897-2 2-2h61.352c1.103 0 2 .897 2 2v32.798zM51.13 145.608c0-1.103.897-2 2-2h61.352c1.103 0 2 .897 2 2v36.426c0 1.104-.897 2-2 2H53.13c-1.103 0-2-.896-2-2v-36.426zm0 50.168c0-1.104.897-2 2-2h61.352c1.103 0 2 .896 2 2v36.427c0 1.104-.897 2-2 2H53.13c-1.103 0-2-.896-2-2v-36.427z"/></svg>