<svg data-name="Layer 1" xmlns="http://www.w3.org/2000/svg" viewBox="0 0 449 512.1"><path fill="currentColor" d="M405.9 98L322 14.1A48 48 0 00288.1 0H84a48.16 48.16 0 00-48 48.1v416a48 48 0 0048 48h288a48 48 0 0048-48V132a48.23 48.23 0 00-14.1-34zm-37.8 30.1H292V52zM84 464.1v-416h160v104a23.94 23.94 0 0024 24h104v288z"/><path fill="currentColor" d="M417.1 448.74L4.33 129.72a11.23 11.23 0 01-2-15.75l13.81-17.73a11.22 11.22 0 0115.76-2l412.76 319a11.22 11.22 0 012 15.75l-13.77 17.73a11.23 11.23 0 01-15.76 2z"/><path fill="currentColor" d="M319.81 366.85H136.18A21.19 21.19 0 01115 345.66V218.54a21.18 21.18 0 0121.18-21.19h183.63A21.19 21.19 0 01341 218.54v127.12a21.19 21.19 0 01-21.19 21.19zM164.43 222.1a24.72 24.72 0 1024.72 24.72 24.72 24.72 0 00-24.72-24.72zm-21.18 116.5h169.5v-49.44l-38.63-38.63a5.29 5.29 0 00-7.49 0l-59.82 59.82-24.51-24.51a5.29 5.29 0 00-7.49 0l-31.56 31.57z"/></svg>