<svg viewBox="-30 -40 600 600" xmlns="http://www.w3.org/2000/svg"><path fill="currentColor" d="M172.5 437c-20.678 0-37.5 16.822-37.5 37.5s16.822 37.5 37.5 37.5 37.5-16.822 37.5-37.5-16.822-37.5-37.5-37.5zm0 60c-12.406 0-22.5-10.094-22.5-22.5s10.094-22.5 22.5-22.5 22.5 10.094 22.5 22.5-10.094 22.5-22.5 22.5z"/><circle fill="currentColor" cx="172.5" cy="474.5" r="7.5"/><circle fill="currentColor" cx="429.5" cy="474.5" r="7.5"/><path fill="currentColor" d="M429.5 437c-20.678 0-37.5 16.822-37.5 37.5s16.822 37.5 37.5 37.5 37.5-16.822 37.5-37.5-16.822-37.5-37.5-37.5zm0 60c-12.406 0-22.5-10.094-22.5-22.5s10.094-22.5 22.5-22.5 22.5 10.094 22.5 22.5-10.094 22.5-22.5 22.5zM123.846 362.954L178.438 332H301c18.109 0 33.262-12.904 36.747-30h78.11c24.002 0 44.917-16.24 50.863-39.493l45.046-176.148A7.503 7.503 0 00504.5 77H136.262l-3.825-14.955C123.107 25.514 90.236 0 52.5 0h-30C10.094 0 0 10.094 0 22.5S10.094 45 22.5 45h30c17.157 0 32.099 11.59 36.338 28.187l57.604 225.225-44.78 25.39C85.217 333.112 75 350.623 75 369.5c0 28.948 23.552 52.5 52.5 52.5h332c12.406 0 22.5-10.094 22.5-22.5S471.906 377 459.5 377h-332c-4.136 0-7.5-3.364-7.5-7.5 0-2.695 1.472-5.202 3.846-6.546zM401.843 217h-46.089l2.812-55h51.715zm23.613-55h51.484l-14.065 55h-45.857zm-25.915 70l-8.438 55h-38.928l2.812-55zm-58.807-15h-46.167l-2.814-55h51.793zm18.599-70l2.812-55h58.875l-8.438 55zm-15.02 0h-53.328l-2.814-55h58.954zm-68.347 0h-29.687c-4.143 0-7.5 3.357-7.5 7.5s3.357 7.5 7.5 7.5h30.454l2.814 55h-46.088L214.276 92h58.875zm-57.682 70h-46.216l-14.067-55h51.842zm2.302 15l8.441 55h-39.055l-14.067-55zm23.616 55l-8.441-55h44.554l2.814 55zm53.947 0l-2.814-55h44.632l-2.812 55zm154.039-28.209A37.481 37.481 0 01415.857 287h-9.579l8.438-55h44.322zM480.776 147h-53.018l8.438-55h58.645zM199.101 92l8.441 55h-53.376l-14.067-55zM52.5 30h-30c-4.136 0-7.5-3.364-7.5-7.5s3.364-7.5 7.5-7.5h30a67.423 67.423 0 0142.138 14.754L83.945 40.448A52.44 52.44 0 0052.5 30zm75 362h332c4.136 0 7.5 3.364 7.5 7.5s-3.364 7.5-7.5 7.5h-332c-20.678 0-37.5-16.822-37.5-37.5 0-13.483 7.301-25.992 19.057-32.648l49.771-28.22a7.5 7.5 0 003.566-8.383L103.37 69.473a52.299 52.299 0 00-8.813-18.422l10.696-10.696a67.27 67.27 0 0112.651 25.404l58.979 230.6a7.5 7.5 0 007.266 5.642h138.066c-3.096 8.73-11.437 15-21.215 15H176.46a7.494 7.494 0 00-3.699.976l-56.309 31.927C109.389 353.9 105 361.41 105 369.5c0 12.406 10.094 22.5 22.5 22.5z"/></svg>