<svg viewBox="0 0 512 512" xmlns="http://www.w3.org/2000/svg"><path fill="currentColor" d="M486.973 259.24h-106.23v-18.72c0-7.004-5.698-12.703-12.703-12.703h-85.833c-7.005 0-12.703 5.699-12.703 12.703v18.72h-13.907v-69.677c0-13.659-11.112-24.772-24.771-24.772h-30.281V29.897c0-8.187-6.66-14.848-14.848-14.848h-11.574v-3.372C174.122 5.239 168.883 0 162.444 0h-58.087C97.919 0 92.68 5.239 92.68 11.677v3.372H81.106c-8.187 0-14.848 6.661-14.848 14.848v134.894H26.916c-13.659 0-24.773 11.113-24.773 24.772v77.092c0 4.142 3.357 7.5 7.5 7.5s7.5-3.358 7.5-7.5v-77.092c0-5.388 4.384-9.772 9.773-9.772h203.909c5.388 0 9.771 4.384 9.771 9.772v261.92c0 5.388-4.384 9.772-9.771 9.772H26.916c-5.389 0-9.773-4.384-9.773-9.772V296.655c0-4.142-3.357-7.5-7.5-7.5s-7.5 3.358-7.5 7.5v154.827c0 13.659 11.113 24.772 24.773 24.772h15.25v27.082c0 4.142 3.357 7.5 7.5 7.5s7.5-3.358 7.5-7.5v-27.082h84.362v12.861c0 11.991 9.755 21.746 21.745 21.746h323.7c11.99 0 21.745-9.755 21.745-21.746v-208.13c0-11.99-9.754-21.745-21.745-21.745zM107.68 15h51.441v15.098H107.68zM81.258 30.049H92.68v3.372c0 6.439 5.238 11.677 11.677 11.677h58.087c6.439 0 11.678-5.238 11.678-11.677v-3.372h11.422v134.742H81.258zM432.843 274.24v220.559h-15.007V274.24zM255.596 451.483V274.24h69.527c4.143 0 7.5-3.358 7.5-7.5s-3.357-7.5-7.5-7.5h-40.62v-16.423h81.239v16.423h-10.619c-4.143 0-7.5 3.358-7.5 7.5s3.357 7.5 7.5 7.5h47.713v221.621H215.575v-19.607h15.25c13.659.001 24.771-11.112 24.771-24.771zm-99.068 37.633v-12.861h44.047v19.607h-37.302a6.753 6.753 0 01-6.745-6.746zm337.19 0a6.752 6.752 0 01-6.745 6.746h-39.13V274.24h39.13a6.752 6.752 0 016.745 6.746z"/><path fill="currentColor" d="M289.884 440.035h55.417c9.272 0 16.815-7.543 16.815-16.815v-21.824c0-9.272-7.543-16.815-16.815-16.815h-55.417c-9.271 0-16.814 7.543-16.814 16.815v21.824c0 9.272 7.543 16.815 16.814 16.815zm-1.814-38.639c0-1.001.814-1.815 1.814-1.815h55.417c1.001 0 1.815.814 1.815 1.815v21.824a1.817 1.817 0 01-1.815 1.815h-55.417c-1 0-1.814-.814-1.814-1.815zm-222.307 21.17V218.48c0-4.142-3.357-7.5-7.5-7.5s-7.5 3.358-7.5 7.5v204.087a7.5 7.5 0 1015-.001zm47.072 0V218.48c0-4.142-3.357-7.5-7.5-7.5s-7.5 3.358-7.5 7.5v204.087a7.5 7.5 0 1015-.001zm47.071 0V218.48c0-4.142-3.357-7.5-7.5-7.5s-7.5 3.358-7.5 7.5v204.087a7.5 7.5 0 1015-.001zm47.071 0V218.48c0-4.142-3.357-7.5-7.5-7.5s-7.5 3.358-7.5 7.5v204.087a7.5 7.5 0 1015-.001z"/></svg>